<!DOCTYPE svg PUBLIC "-//W3C//DTD SVG 1.1//EN" "http://www.w3.org/Graphics/SVG/1.1/DTD/svg11.dtd">
<!-- Uploaded to: SVG Repo, www.svgrepo.com, Transformed by: SVG Repo Mixer Tools -->
<svg fill="#000000" width="800px" height="800px" viewBox="0 0 24 24" id="check-lists-square" data-name="Flat Color" xmlns="http://www.w3.org/2000/svg" class="icon flat-color">
<g id="SVGRepo_bgCarrier" stroke-width="0"/>
<g id="SVGRepo_tracerCarrier" stroke-linecap="round" stroke-linejoin="round"/>
<g id="SVGRepo_iconCarrier">
<rect id="primary" x="2" y="2" width="20" height="20" rx="2" style="fill: #011627;"/>
<path id="secondary" d="M7,11a1,1,0,0,1-.71-.29l-1-1A1,1,0,0,1,6.71,8.29l.29.3,1.29-1.3A1,1,0,1,1,9.71,8.71l-2,2A1,1,0,0,1,7,11Zm.71,5.71,2-2a1,1,0,0,0-1.42-1.42L7,14.59l-.29-.3a1,1,0,0,0-1.42,1.42l1,1a1,1,0,0,0,1.42,0ZM19,15a1,1,0,0,0-1-1H13a1,1,0,0,0,0,2h5A1,1,0,0,0,19,15Zm0-6a1,1,0,0,0-1-1H13a1,1,0,0,0,0,2h5A1,1,0,0,0,19,9Z" style="fill: #2ec4b6;"/>
</g>
</svg>